<svg width="40" height="40" viewBox="0 0 40 40" fill="none" xmlns="http://www.w3.org/2000/svg">
<path d="M20.006 8.94679e-07C16.0501 -0.00118208 12.1827 1.17079 8.89295 3.3677C5.60318 5.56461 3.0388 8.68777 1.52413 12.3422C0.00946345 15.9966 -0.387454 20.0181 0.383575 23.8981C1.1546 27.7782 3.05895 31.3424 5.85576 34.14C8.65257 36.9377 12.2162 38.8431 16.096 39.6153C19.9758 40.3874 23.9974 39.9917 27.6523 38.4781C31.3072 36.9646 34.4311 34.4011 36.629 31.112C38.8269 27.8229 40 23.9559 40 20C39.9984 14.6972 37.8916 9.61194 34.1425 5.86173C30.3934 2.11152 25.3088 0.00317125 20.006 8.94679e-07ZM29.0192 27.1112H24.8325V21.0765L20.012 16.8122L15.1794 21.0765V27.1232H10.9928V19.1806L20.018 11.2261L29.0311 19.1806L29.0192 27.1112ZM24.8325 15.4246V11.2679H29.0192V15.4246H24.8325Z" fill="white"/>
</svg>
